<svg width="97" height="83" viewBox="0 0 97 83" fill="none" xmlns="http://www.w3.org/2000/svg">
<g id="Group 7">
<path id="U" d="M13.4223 29.86V59.26C13.4223 62.2 14.1456 64.4633 15.5923 66.05C17.0389 67.6367 19.1623 68.43 21.9623 68.43C24.7623 68.43 26.9089 67.6367 28.4023 66.05C29.8956 64.4633 30.6423 62.2 30.6423 59.26V29.86H42.6123V59.19C42.6123 63.5767 41.6789 67.2867 39.8123 70.32C37.9456 73.3533 35.4256 75.64 32.2523 77.18C29.1256 78.72 25.6256 79.49 21.7523 79.49C17.8789 79.49 14.4023 78.7433 11.3223 77.25C8.28893 75.71 5.8856 73.4233 4.11227 70.39C2.33893 67.31 1.45227 63.5767 1.45227 59.19V29.86H13.4223Z" fill="black"/>
<path id="Vector 2" d="M57.5 78H46L46 44.3385C46 43.1122 46.0749 41.8817 46.3172 40.6797C48.7358 28.6786 56.1861 25.4302 60 24C66.0861 21.7178 73 23.1666 76 24.5V37.5C67.1079 30.831 60.1926 36.4176 58.0663 41.6044C57.5657 42.8255 57.5 44.1527 57.5 45.4726V78Z" fill="black"/>
<path id="Vector 3" d="M61 54V66.5C79.6023 72.8248 88.1116 58.8771 90.5512 49.5207C90.8993 48.1855 91 46.8059 91 45.4261V16.5H96.5L85 0L74 16.5H79.5V45.3361C79.5 46.7751 79.2749 48.2094 78.6415 49.5014C73.9156 59.1418 65.5433 56.35 61 54Z" fill="#7F22FE"/>
</g>
</svg>
