<svg width="161" height="153" viewBox="0 0 161 153" fill="none" xmlns="http://www.w3.org/2000/svg">
<g id="Frame 2">
<rect width="160.5" height="153" rx="38" fill="black"/>
<g id="Group 8">
<path id="U" d="M45.4223 64.86V94.26C45.4223 97.2 46.1456 99.4633 47.5923 101.05C49.0389 102.637 51.1623 103.43 53.9623 103.43C56.7623 103.43 58.9089 102.637 60.4023 101.05C61.8956 99.4633 62.6423 97.2 62.6423 94.26V64.86H74.6123V94.19C74.6123 98.5767 73.6789 102.287 71.8123 105.32C69.9456 108.353 67.4256 110.64 64.2523 112.18C61.1256 113.72 57.6256 114.49 53.7523 114.49C49.8789 114.49 46.4023 113.743 43.3223 112.25C40.2889 110.71 37.8856 108.423 36.1123 105.39C34.3389 102.31 33.4523 98.5767 33.4523 94.19V64.86H45.4223Z" fill="white"/>
<path id="Vector 2" d="M89.5 113H78L78 79.3385C78 78.1122 78.0749 76.8817 78.3172 75.6797C80.7358 63.6786 88.1861 60.4302 92 59C98.0861 56.7178 105 58.1666 108 59.5V72.5C99.1079 65.831 92.1926 71.4176 90.0663 76.6044C89.5657 77.8255 89.5 79.1527 89.5 80.4726V113Z" fill="white"/>
<path id="Vector 3" d="M93 89V101.5C111.602 107.825 120.112 93.8771 122.551 84.5207C122.899 83.1855 123 81.8059 123 80.4261V51.5H128.5L117 35L106 51.5H111.5V80.3361C111.5 81.7751 111.275 83.2094 110.642 84.5014C105.916 94.1418 97.5433 91.35 93 89Z" fill="#7F22FE"/>
</g>
</g>
</svg>
