<svg width="104" height="104" viewBox="0 0 104 104" fill="none" xmlns="http://www.w3.org/2000/svg">
<path d="M17.1723 40.36V69.76C17.1723 72.7 17.8956 74.9633 19.3423 76.55C20.7889 78.1367 22.9123 78.93 25.7123 78.93C28.5123 78.93 30.6589 78.1367 32.1523 76.55C33.6456 74.9633 34.3923 72.7 34.3923 69.76V40.36H46.3623V69.69C46.3623 74.0767 45.4289 77.7867 43.5623 80.82C41.6956 83.8533 39.1756 86.14 36.0023 87.68C32.8756 89.22 29.3756 89.99 25.5023 89.99C21.6289 89.99 18.1523 89.2433 15.0723 87.75C12.0389 86.21 9.6356 83.9233 7.86227 80.89C6.08893 77.81 5.20227 74.0767 5.20227 69.69V40.36H17.1723Z" fill="black"/>
<path d="M61.25 88.5H49.75L49.75 54.8385C49.75 53.6122 49.8249 52.3817 50.0672 51.1797C52.4858 39.1786 59.9361 35.9302 63.75 34.5C69.8361 32.2178 76.75 33.6666 79.75 35V48C70.8579 41.331 63.9426 46.9176 61.8163 52.1044C61.3157 53.3255 61.25 54.6527 61.25 55.9726V88.5Z" fill="black"/>
<path d="M64.75 64.5V77C83.3523 83.3248 91.8616 69.3771 94.3012 60.0207C94.6493 58.6855 94.75 57.3059 94.75 55.9261V27H100.25L88.75 10.5L77.75 27H83.25V55.8361C83.25 57.2751 83.0249 58.7094 82.3915 60.0014C77.6656 69.6418 69.2933 66.85 64.75 64.5Z" fill="#7F22FE"/>
</svg>
